# xmcd
#
# Track frame offsets: 
#        225
#        10057
#        29072
#        45069
#        64221
#        82481
#        109974
#        127018
#        150480
#        167548
#        182269
#        193643
#        209184
#
# Disc length: 2969 seconds
#
# Revision: 2
# Processed by: cddbd v1.5.2PL0 Copyright (c) Steve Scherf et al.
# Submitted via: ExactAudioCopyFreeDBPlugin 1.0
#
DISCID=b20b960d
DTITLE=The Winchesters - Next Life
DYEAR=1996
DGENRE=Blues
TTITLE0=Long Time Dead
TTITLE1=Next Life
TTITLE2=My Butterfly
TTITLE3=Deadwater Lullaby
TTITLE4=I Realised
TTITLE5=This Love Of Mine
TTITLE6=Farewell You Dog, Farewell
TTITLE7=Who Will Believe Me Now?
TTITLE8=Married Young
TTITLE9=Desirable
TTITLE10=Hullabaloo
TTITLE11=Honeymooni'
TTITLE12=More, More, More (More, More)
EXTD=The Album is by a Northwest UK Band
EXTT0=
EXTT1=
EXTT2=
EXTT3=
EXTT4=
EXTT5=
EXTT6=
EXTT7=
EXTT8=
EXTT9=
EXTT10=
EXTT11=
EXTT12=
PLAYORDER=
